<svg version="1.1" viewBox="0.0 0.0 700.0 443.0" fill="none" stroke="none" stroke-linecap="square" stroke-miterlimit="10" width="700" height="443" xmlns:xlink="http://www.w3.org/1999/xlink" xmlns="http://www.w3.org/2000/svg"><path fill="#ffffff" d="M0 0L700.0 0L700.0 443.0L0 443.0L0 0Z" fill-rule="nonzero"/><path fill="#ffffff" d="M22.15 22.15L677.85004 22.15L677.85004 420.85L22.15 420.85L22.15 22.15Z" fill-rule="nonzero"/><path stroke="#cccccc" stroke-width="1.0" stroke-linecap="butt" d="M350.0 222.0C350.0 222.0 350.0 222.0 350.0 222.0C350.0 222.0 350.0 222.0 350.0 222.0C350.0 222.0 350.0 222.0 350.0 222.0C350.0 222.0 350.0 222.0 350.0 222.0" fill-rule="nonzero"/><path fill="#000000" d="M347.0625 215.35938Q347.0625 217.26562 346.40625 218.20312Q345.76562 219.125 344.375 219.125Q343.01562 219.125 342.35938 218.21875Q341.70312 217.3125 341.67188 215.5L341.67188 214.0625Q341.67188 212.17188 342.3125 211.26562Q342.96875 210.34375 344.35938 210.34375Q345.73438 210.34375 346.39062 211.23438Q347.04688 212.10938 347.0625 213.95312L347.0625 215.35938ZM345.96875 213.875Q345.96875 212.5 345.57812 211.875Q345.20312 211.23438 344.35938 211.23438Q343.53125 211.23438 343.14062 211.875Q342.76562 212.5 342.76562 213.79688L342.76562 215.53125Q342.76562 216.90625 343.15625 217.57812Q343.5625 218.23438 344.375 218.23438Q345.17188 218.23438 345.5625 217.60938Q345.95312 216.98438 345.96875 215.65625L345.96875 213.875Z" fill-rule="nonzero"/><path stroke="#cccccc" stroke-width="1.0" stroke-linecap="butt" d="M391.8375 222.0C391.8375 198.89378 373.1062 180.1625 350.0 180.1625C326.8938 180.1625 308.1625 198.89378 308.1625 222.0C308.1625 245.10622 326.8938 263.8375 350.0 263.8375C373.1062 263.8375 391.8375 245.10622 391.8375 222.0" fill-rule="nonzero"/><path fill="#000000" d="M340.29688 177.1625L334.70312 177.1625L334.70312 176.38126L337.65625 173.1Q338.3125 172.35 338.5625 171.89688Q338.8125 171.42813 338.8125 170.92813Q338.8125 170.25626 338.40625 169.83438Q338.01562 169.39688 337.32812 169.39688Q336.53125 169.39688 336.07812 169.86563Q335.625 170.31876 335.625 171.14688L334.54688 171.14688Q334.54688 169.95938 335.29688 169.24063Q336.0625 168.50626 337.32812 168.50626Q338.53125 168.50626 339.21875 169.13126Q339.90625 169.75626 339.90625 170.80313Q339.90625 172.05313 338.29688 173.80313L336.01562 176.27188L340.29688 176.27188L340.29688 177.1625ZM342.20312 172.88126L342.64062 168.63126L347.01562 168.63126L347.01562 169.63126L343.5625 169.63126L343.29688 171.95938Q343.9375 171.58438 344.73438 171.58438Q345.89062 171.58438 346.57812 172.36563Q347.26562 173.13126 347.26562 174.44376Q347.26562 175.75626 346.54688 176.52188Q345.84375 177.2875 344.5625 177.2875Q343.4375 177.2875 342.71875 176.6625Q342.0 176.02188 341.90625 174.9125L342.92188 174.9125Q343.03125 175.64688 343.45312 176.02188Q343.875 176.39688 344.5625 176.39688Q345.3125 176.39688 345.75 175.88126Q346.1875 175.36563 346.1875 174.45938Q346.1875 173.6 345.71875 173.08438Q345.25 172.56876 344.46875 172.56876Q343.76562 172.56876 343.35938 172.86563L343.07812 173.1L342.20312 172.88126Z" fill-rule="nonzero"/><path stroke="#cccccc" stroke-width="1.0" stroke-linecap="butt" d="M433.675 222.0C433.675 175.78757 396.21243 138.325 350.0 138.325C303.78757 138.325 266.325 175.78757 266.325 222.0C266.325 268.21243 303.78757 305.675 350.0 305.675C396.21243 305.675 433.675 268.21243 433.675 222.0" fill-rule="nonzero"/><path fill="#000000" d="M335.20312 131.04375L335.64062 126.79375L340.01562 126.79375L340.01562 127.79375L336.5625 127.79375L336.29688 130.12187Q336.9375 129.74687 337.73438 129.74687Q338.89062 129.74687 339.57812 130.52812Q340.26562 131.29375 340.26562 132.60625Q340.26562 133.91875 339.54688 134.68437Q338.84375 135.45 337.5625 135.45Q336.4375 135.45 335.71875 134.825Q335.0 134.18437 334.90625 133.075L335.92188 133.075Q336.03125 133.80937 336.45312 134.18437Q336.875 134.55937 337.5625 134.55937Q338.3125 134.55937 338.75 134.04375Q339.1875 133.52812 339.1875 132.62187Q339.1875 131.7625 338.71875 131.24687Q338.25 130.73125 337.46875 130.73125Q336.76562 130.73125 336.35938 131.02812L336.07812 131.2625L335.20312 131.04375ZM347.0625 131.68437Q347.0625 133.59062 346.40625 134.52812Q345.76562 135.45 344.375 135.45Q343.01562 135.45 342.35938 134.54375Q341.70312 133.6375 341.67188 131.825L341.67188 130.3875Q341.67188 128.49687 342.3125 127.59062Q342.96875 126.66875 344.35938 126.66875Q345.73438 126.66875 346.39062 127.55937Q347.04688 128.43437 347.0625 130.27812L347.0625 131.68437ZM345.96875 130.2Q345.96875 128.825 345.57812 128.2Q345.20312 127.55937 344.35938 127.55937Q343.53125 127.55937 343.14062 128.2Q342.76562 128.825 342.76562 130.12187L342.76562 131.85625Q342.76562 133.23125 343.15625 133.90312Q343.5625 134.55937 344.375 134.55937Q345.17188 134.55937 345.5625 133.93437Q345.95312 133.30937 345.96875 131.98125L345.96875 130.2Z" fill-rule="nonzero"/><path stroke="#cccccc" stroke-width="1.0" stroke-linecap="butt" d="M475.5125 222.0C475.5125 152.68137 419.31863 96.4875 350.0 96.4875C280.68137 96.4875 224.4875 152.68137 224.4875 222.0C224.4875 291.31863 280.68137 347.5125 350.0 347.5125C419.31863 347.5125 475.5125 291.31863 475.5125 222.0" fill-rule="nonzero"/><path fill="#000000" d="M340.21875 85.56563L336.6875 93.4875L335.54688 93.4875L339.0625 85.84688L334.45312 85.84688L334.45312 84.95625L340.21875 84.95625L340.21875 85.56563ZM342.20312 89.20625L342.64062 84.95625L347.01562 84.95625L347.01562 85.95625L343.5625 85.95625L343.29688 88.28438Q343.9375 87.90938 344.73438 87.90938Q345.89062 87.90938 346.57812 88.69063Q347.26562 89.45625 347.26562 90.76875Q347.26562 92.08125 346.54688 92.84688Q345.84375 93.6125 344.5625 93.6125Q343.4375 93.6125 342.71875 92.9875Q342.0 92.34688 341.90625 91.2375L342.92188 91.2375Q343.03125 91.97188 343.45312 92.34688Q343.875 92.72188 344.5625 92.72188Q345.3125 92.72188 345.75 92.20625Q346.1875 91.69063 346.1875 90.78438Q346.1875 89.925 345.71875 89.40938Q345.25 88.89375 344.46875 88.89375Q343.76562 88.89375 343.35938 89.19063L343.07812 89.425L342.20312 89.20625Z" fill-rule="nonzero"/><path stroke="#cccccc" stroke-width="1.0" stroke-linecap="butt" d="M517.35 222.0C517.35 129.57515 442.42487 54.65 350.0 54.65C257.57513 54.65 182.65 129.57515 182.65 222.0C182.65 314.42487 257.57513 389.35 350.0 389.35C442.42487 389.35 517.35 314.42487 517.35 222.0" fill-rule="nonzero"/><path fill="#000000" d="M331.26562 51.65L330.1875 51.65L330.1875 44.43125L328.0 45.228127L328.0 44.24375L331.10938 43.071877L331.26562 43.071877L331.26562 51.65ZM340.0625 48.009377Q340.0625 49.915627 339.40625 50.853127Q338.76562 51.775 337.375 51.775Q336.01562 51.775 335.35938 50.86875Q334.70312 49.9625 334.67188 48.15L334.67188 46.7125Q334.67188 44.821877 335.3125 43.915627Q335.96875 42.99375 337.35938 42.99375Q338.73438 42.99375 339.39062 43.884377Q340.04688 44.759377 340.0625 46.603127L340.0625 48.009377ZM338.96875 46.525Q338.96875 45.15 338.57812 44.525Q338.20312 43.884377 337.35938 43.884377Q336.53125 43.884377 336.14062 44.525Q335.76562 45.15 335.76562 46.446877L335.76562 48.18125Q335.76562 49.55625 336.15625 50.228127Q336.5625 50.884377 337.375 50.884377Q338.17188 50.884377 338.5625 50.259377Q338.95312 49.634377 338.96875 48.30625L338.96875 46.525ZM347.0625 48.009377Q347.0625 49.915627 346.40625 50.853127Q345.76562 51.775 344.375 51.775Q343.01562 51.775 342.35938 50.86875Q341.70312 49.9625 341.67188 48.15L341.67188 46.7125Q341.67188 44.821877 342.3125 43.915627Q342.96875 42.99375 344.35938 42.99375Q345.73438 42.99375 346.39062 43.884377Q347.04688 44.759377 347.0625 46.603127L347.0625 48.009377ZM345.96875 46.525Q345.96875 45.15 345.57812 44.525Q345.20312 43.884377 344.35938 43.884377Q343.53125 43.884377 343.14062 44.525Q342.76562 45.15 342.76562 46.446877L342.76562 48.18125Q342.76562 49.55625 343.15625 50.228127Q343.5625 50.884377 344.375 50.884377Q345.17188 50.884377 345.5625 50.259377Q345.95312 49.634377 345.96875 48.30625L345.96875 46.525Z" fill-rule="nonzero"/><path stroke="#cccccc" stroke-width="1.0" stroke-linecap="butt" d="M350.0 222.0L350.0 55.0" fill-rule="nonzero"/><path fill="#000000" d="M350.35938 31.734375Q350.9375 31.734375 351.375 31.390625Q351.8125 31.03125 351.85938 30.5L352.89062 30.5Q352.85938 31.046875 352.5 31.546875Q352.15625 32.03125 351.57812 32.328125Q351.01562 32.625 350.35938 32.625Q349.0625 32.625 348.29688 31.765625Q347.54688 30.890625 347.54688 29.390625L347.54688 29.203125Q347.54688 28.28125 347.875 27.5625Q348.21875 26.84375 348.84375 26.453125Q349.48438 26.046875 350.35938 26.046875Q351.42188 26.046875 352.125 26.6875Q352.84375 27.3125 352.89062 28.34375L351.85938 28.34375Q351.8125 27.71875 351.39062 27.328125Q350.96875 26.9375 350.35938 26.9375Q349.53125 26.9375 349.07812 27.53125Q348.625 28.125 348.625 29.25L348.625 29.453125Q348.625 30.546875 349.07812 31.140625Q349.53125 31.734375 350.35938 31.734375Z" fill-rule="nonzero"/><path stroke="#cccccc" stroke-width="1.0" stroke-linecap="butt" d="M350.0 222.0L468.0 104.0" fill-rule="nonzero"/><path fill="#000000" d="M474.17188 86.40625Q474.17188 87.84375 473.51562 88.734375Q472.85938 89.625 471.71875 89.625Q470.5625 89.625 469.90625 88.890625L469.90625 91.9375L468.82812 91.9375L468.82812 83.15625L469.8125 83.15625L469.85938 83.859375Q470.53125 83.046875 471.70312 83.046875Q472.84375 83.046875 473.5 83.90625Q474.17188 84.765625 474.17188 86.296875L474.17188 86.40625ZM473.09375 86.28125Q473.09375 85.203125 472.625 84.59375Q472.17188 83.96875 471.375 83.96875Q470.39062 83.96875 469.90625 84.828125L469.90625 87.859375Q470.39062 88.734375 471.39062 88.734375Q472.17188 88.734375 472.625 88.125Q473.09375 87.5 473.09375 86.28125ZM477.89062 87.90625L479.375 83.15625L480.53125 83.15625L477.98438 90.484375Q477.39062 92.0625 476.10938 92.0625L475.89062 92.046875L475.5 91.96875L475.5 91.09375L475.78125 91.109375Q476.34375 91.109375 476.64062 90.890625Q476.95312 90.671875 477.15625 90.078125L477.39062 89.421875L475.125 83.15625L476.3125 83.15625L477.89062 87.90625ZM483.29688 81.625L483.29688 83.15625L484.46875 83.15625L484.46875 84.0L483.29688 84.0L483.29688 87.921875Q483.29688 88.3125 483.45312 88.5Q483.60938 88.6875 483.98438 88.6875Q484.17188 88.6875 484.5 88.625L484.5 89.5Q484.07812 89.625 483.67188 89.625Q482.95312 89.625 482.57812 89.1875Q482.20312 88.734375 482.20312 87.921875L482.20312 84.0L481.04688 84.0L481.04688 83.15625L482.20312 83.15625L482.20312 81.625L483.29688 81.625ZM486.90625 83.921875Q487.625 83.046875 488.78125 83.046875Q490.79688 83.046875 490.8125 85.3125L490.8125 89.5L489.71875 89.5L489.71875 85.296875Q489.71875 84.625 489.40625 84.296875Q489.10938 83.96875 488.45312 83.96875Q487.92188 83.96875 487.51562 84.25Q487.125 84.53125 486.90625 84.984375L486.90625 89.5L485.82812 89.5L485.82812 80.5L486.90625 80.5L486.90625 83.921875ZM492.53125 86.265625Q492.53125 85.34375 492.89062 84.59375Q493.26562 83.84375 493.92188 83.453125Q494.57812 83.046875 495.40625 83.046875Q496.70312 83.046875 497.5 83.9375Q498.3125 84.828125 498.3125 86.328125L498.3125 86.40625Q498.3125 87.328125 497.95312 88.0625Q497.59375 88.796875 496.9375 89.21875Q496.28125 89.625 495.42188 89.625Q494.14062 89.625 493.32812 88.734375Q492.53125 87.828125 492.53125 86.34375L492.53125 86.265625ZM493.625 86.40625Q493.625 87.453125 494.10938 88.09375Q494.60938 88.734375 495.42188 88.734375Q496.25 88.734375 496.73438 88.09375Q497.21875 87.4375 497.21875 86.265625Q497.21875 85.234375 496.71875 84.59375Q496.23438 83.9375 495.40625 83.9375Q494.60938 83.9375 494.10938 84.578125Q493.625 85.203125 493.625 86.40625ZM500.84375 83.15625L500.875 83.953125Q501.60938 83.046875 502.78125 83.046875Q504.79688 83.046875 504.8125 85.3125L504.8125 89.5L503.71875 89.5L503.71875 85.296875Q503.71875 84.625 503.40625 84.296875Q503.10938 83.96875 502.45312 83.96875Q501.92188 83.96875 501.51562 84.25Q501.125 84.53125 500.90625 84.984375L500.90625 89.5L499.82812 89.5L499.82812 83.15625L500.84375 83.15625Z" fill-rule="nonzero"/><path stroke="#cccccc" stroke-width="1.0" stroke-linecap="butt" d="M350.0 222.0L517.0 222.0" fill-rule="nonzero"/><path fill="#000000" d="M519.4375 220.15625L519.4375 227.23438Q519.4375 229.0625 517.78125 229.0625Q517.4219 229.0625 517.125 228.95312L517.125 228.09375Q517.3125 228.14062 517.6094 228.14062Q517.96875 228.14062 518.15625 227.9375Q518.3594 227.75 518.3594 227.25L518.3594 220.15625L519.4375 220.15625ZM518.25 218.48438Q518.25 218.21875 518.40625 218.03125Q518.5625 217.84375 518.875 217.84375Q519.1875 217.84375 519.34375 218.03125Q519.5156 218.21875 519.5156 218.48438Q519.5156 218.73438 519.34375 218.92188Q519.1875 219.09375 518.875 219.09375Q518.5625 219.09375 518.40625 218.92188Q518.25 218.73438 518.25 218.48438ZM525.2344 226.5Q525.1406 226.3125 525.0781 225.82812Q524.3281 226.625 523.28125 226.625Q522.34375 226.625 521.7344 226.09375Q521.1406 225.5625 521.1406 224.73438Q521.1406 223.75 521.8906 223.20312Q522.6406 222.65625 524.0156 222.65625L525.0625 222.65625L525.0625 222.15625Q525.0625 221.59375 524.71875 221.26562Q524.3906 220.92188 523.71875 220.92188Q523.1406 220.92188 522.75 221.21875Q522.3594 221.5 522.3594 221.92188L521.2656 221.92188Q521.2656 221.4375 521.59375 221.0Q521.9375 220.5625 522.5156 220.3125Q523.09375 220.04688 523.78125 220.04688Q524.8906 220.04688 525.5 220.59375Q526.125 221.14062 526.15625 222.09375L526.15625 225.01562Q526.15625 225.89062 526.375 226.40625L526.375 226.5L525.2344 226.5ZM523.4375 225.67188Q523.9531 225.67188 524.40625 225.40625Q524.8594 225.14062 525.0625 224.71875L525.0625 223.42188L524.21875 223.42188Q522.21875 223.42188 522.21875 224.59375Q522.21875 225.09375 522.5625 225.39062Q522.90625 225.67188 523.4375 225.67188ZM530.40625 225.03125L531.9844 220.15625L533.09375 220.15625L530.8125 226.5L529.9844 226.5L527.6875 220.15625L528.7969 220.15625L530.40625 225.03125ZM538.2344 226.5Q538.1406 226.3125 538.0781 225.82812Q537.3281 226.625 536.28125 226.625Q535.34375 226.625 534.7344 226.09375Q534.1406 225.5625 534.1406 224.73438Q534.1406 223.75 534.8906 223.20312Q535.6406 222.65625 537.0156 222.65625L538.0625 222.65625L538.0625 222.15625Q538.0625 221.59375 537.71875 221.26562Q537.3906 220.92188 536.71875 220.92188Q536.1406 220.92188 535.75 221.21875Q535.3594 221.5 535.3594 221.92188L534.2656 221.92188Q534.2656 221.4375 534.59375 221.0Q534.9375 220.5625 535.5156 220.3125Q536.09375 220.04688 536.78125 220.04688Q537.8906 220.04688 538.5 220.59375Q539.125 221.14062 539.15625 222.09375L539.15625 225.01562Q539.15625 225.89062 539.375 226.40625L539.375 226.5L538.2344 226.5ZM536.4375 225.67188Q536.9531 225.67188 537.40625 225.40625Q537.8594 225.14062 538.0625 224.71875L538.0625 223.42188L537.21875 223.42188Q535.21875 223.42188 535.21875 224.59375Q535.21875 225.09375 535.5625 225.39062Q535.90625 225.67188 536.4375 225.67188ZM545.0156 224.8125Q545.0156 224.375 544.6719 224.14062Q544.34375 223.89062 543.5156 223.71875Q542.7031 223.54688 542.21875 223.29688Q541.7344 223.04688 541.5 222.71875Q541.28125 222.375 541.28125 221.90625Q541.28125 221.125 541.9375 220.59375Q542.59375 220.04688 543.625 220.04688Q544.7031 220.04688 545.3594 220.60938Q546.03125 221.15625 546.03125 222.01562L544.9531 222.01562Q544.9531 221.57812 544.5625 221.26562Q544.1875 220.9375 543.625 220.9375Q543.03125 220.9375 542.6875 221.20312Q542.3594 221.45312 542.3594 221.85938Q542.3594 222.25 542.6719 222.45312Q542.9844 222.65625 543.7969 222.84375Q544.6094 223.01562 545.1094 223.26562Q545.6094 223.51562 545.84375 223.875Q546.09375 224.23438 546.09375 224.73438Q546.09375 225.59375 545.40625 226.10938Q544.7344 226.625 543.65625 226.625Q542.8906 226.625 542.2969 226.35938Q541.71875 226.07812 541.3906 225.59375Q541.0625 225.10938 541.0625 224.54688L542.1406 224.54688Q542.1719 225.09375 542.5781 225.42188Q542.9844 225.73438 543.65625 225.73438Q544.2656 225.73438 544.6406 225.48438Q545.0156 225.23438 545.0156 224.8125ZM549.8594 225.73438Q550.4375 225.73438 550.875 225.39062Q551.3125 225.03125 551.3594 224.5L552.3906 224.5Q552.3594 225.04688 552.0 225.54688Q551.65625 226.03125 551.0781 226.32812Q550.5156 226.625 549.8594 226.625Q548.5625 226.625 547.7969 225.76562Q547.0469 224.89062 547.0469 223.39062L547.0469 223.20312Q547.0469 222.28125 547.375 221.5625Q547.71875 220.84375 548.34375 220.45312Q548.9844 220.04688 549.8594 220.04688Q550.9219 220.04688 551.625 220.6875Q552.34375 221.3125 552.3906 222.34375L551.3594 222.34375Q551.3125 221.71875 550.8906 221.32812Q550.46875 220.9375 549.8594 220.9375Q549.03125 220.9375 548.5781 221.53125Q548.125 222.125 548.125 223.25L548.125 223.45312Q548.125 224.54688 548.5781 225.14062Q549.03125 225.73438 549.8594 225.73438ZM556.3906 221.125Q556.1406 221.09375 555.8594 221.09375Q554.78125 221.09375 554.40625 222.0L554.40625 226.5L553.3281 226.5L553.3281 220.15625L554.375 220.15625L554.3906 220.89062Q554.9219 220.04688 555.90625 220.04688Q556.21875 220.04688 556.3906 220.125L556.3906 221.125ZM558.5 226.5L557.4219 226.5L557.4219 220.15625L558.5 220.15625L558.5 226.5ZM557.3281 218.48438Q557.3281 218.21875 557.4844 218.03125Q557.65625 217.84375 557.96875 217.84375Q558.28125 217.84375 558.4375 218.03125Q558.6094 218.21875 558.6094 218.48438Q558.6094 218.73438 558.4375 218.92188Q558.28125 219.09375 557.96875 219.09375Q557.65625 219.09375 557.4844 218.92188Q557.3281 218.73438 557.3281 218.48438ZM565.6719 223.40625Q565.6719 224.84375 565.0156 225.73438Q564.3594 226.625 563.21875 226.625Q562.0625 226.625 561.40625 225.89062L561.40625 228.9375L560.3281 228.9375L560.3281 220.15625L561.3125 220.15625L561.3594 220.85938Q562.03125 220.04688 563.2031 220.04688Q564.34375 220.04688 565.0 220.90625Q565.6719 221.76562 565.6719 223.29688L565.6719 223.40625ZM564.59375 223.28125Q564.59375 222.20312 564.125 221.59375Q563.6719 220.96875 562.875 220.96875Q561.8906 220.96875 561.40625 221.82812L561.40625 224.85938Q561.8906 225.73438 562.8906 225.73438Q563.6719 225.73438 564.125 225.125Q564.59375 224.5 564.59375 223.28125ZM568.7969 218.625L568.7969 220.15625L569.96875 220.15625L569.96875 221.0L568.7969 221.0L568.7969 224.92188Q568.7969 225.3125 568.9531 225.5Q569.1094 225.6875 569.4844 225.6875Q569.6719 225.6875 570.0 225.625L570.0 226.5Q569.5781 226.625 569.1719 226.625Q568.4531 226.625 568.0781 226.1875Q567.7031 225.73438 567.7031 224.92188L567.7031 221.0L566.5469 221.0L566.5469 220.15625L567.7031 220.15625L567.7031 218.625L568.7969 218.625Z" fill-rule="nonzero"/><path stroke="#cccccc" stroke-width="1.0" stroke-linecap="butt" d="M350.0 222.0L468.0 340.0" fill-rule="nonzero"/><path fill="#000000" d="M468.0625 360.28125Q468.0625 358.8125 468.75 357.9375Q469.4375 357.04688 470.5625 357.04688Q471.67188 357.04688 472.32812 357.79688L472.32812 354.5L473.40625 354.5L473.40625 363.5L472.40625 363.5L472.35938 362.8125Q471.70312 363.625 470.54688 363.625Q469.45312 363.625 468.75 362.71875Q468.0625 361.8125 468.0625 360.35938L468.0625 360.28125ZM469.14062 360.40625Q469.14062 361.48438 469.57812 362.09375Q470.03125 362.70312 470.8125 362.70312Q471.84375 362.70312 472.32812 361.76562L472.32812 358.85938Q471.84375 357.96875 470.82812 357.96875Q470.03125 357.96875 469.57812 358.57812Q469.14062 359.1875 469.14062 360.40625ZM477.95312 363.625Q476.65625 363.625 475.84375 362.78125Q475.04688 361.92188 475.04688 360.5L475.04688 360.3125Q475.04688 359.35938 475.40625 358.625Q475.76562 357.875 476.40625 357.46875Q477.0625 357.04688 477.8125 357.04688Q479.04688 357.04688 479.73438 357.85938Q480.42188 358.67188 480.42188 360.1875L480.42188 360.64062L476.125 360.64062Q476.15625 361.57812 476.67188 362.15625Q477.20312 362.73438 478.01562 362.73438Q478.57812 362.73438 478.96875 362.5Q479.375 362.26562 479.6875 361.875L480.34375 362.39062Q479.54688 363.625 477.95312 363.625ZM477.8125 357.9375Q477.15625 357.9375 476.70312 358.42188Q476.26562 358.89062 476.17188 359.75L479.34375 359.75L479.34375 359.67188Q479.29688 358.84375 478.89062 358.39062Q478.5 357.9375 477.8125 357.9375ZM483.40625 362.03125L484.98438 357.15625L486.09375 357.15625L483.8125 363.5L482.98438 363.5L480.6875 357.15625L481.79688 357.15625L483.40625 362.03125ZM487.03125 360.26562Q487.03125 359.34375 487.39062 358.59375Q487.76562 357.84375 488.42188 357.45312Q489.07812 357.04688 489.90625 357.04688Q491.20312 357.04688 492.0 357.9375Q492.8125 358.82812 492.8125 360.32812L492.8125 360.40625Q492.8125 361.32812 492.45312 362.0625Q492.09375 362.79688 491.4375 363.21875Q490.78125 363.625 489.92188 363.625Q488.64062 363.625 487.82812 362.73438Q487.03125 361.82812 487.03125 360.34375L487.03125 360.26562ZM488.125 360.40625Q488.125 361.45312 488.60938 362.09375Q489.10938 362.73438 489.92188 362.73438Q490.75 362.73438 491.23438 362.09375Q491.71875 361.4375 491.71875 360.26562Q491.71875 359.23438 491.21875 358.59375Q490.73438 357.9375 489.90625 357.9375Q489.10938 357.9375 488.60938 358.57812Q488.125 359.20312 488.125 360.40625ZM499.67188 360.40625Q499.67188 361.84375 499.01562 362.73438Q498.35938 363.625 497.21875 363.625Q496.0625 363.625 495.40625 362.89062L495.40625 365.9375L494.32812 365.9375L494.32812 357.15625L495.3125 357.15625L495.35938 357.85938Q496.03125 357.04688 497.20312 357.04688Q498.34375 357.04688 499.0 357.90625Q499.67188 358.76562 499.67188 360.29688L499.67188 360.40625ZM498.59375 360.28125Q498.59375 359.20312 498.125 358.59375Q497.67188 357.96875 496.875 357.96875Q495.89062 357.96875 495.40625 358.82812L495.40625 361.85938Q495.89062 362.73438 496.89062 362.73438Q497.67188 362.73438 498.125 362.125Q498.59375 361.5 498.59375 360.28125ZM505.01562 361.8125Q505.01562 361.375 504.67188 361.14062Q504.34375 360.89062 503.51562 360.71875Q502.70312 360.54688 502.21875 360.29688Q501.73438 360.04688 501.5 359.71875Q501.28125 359.375 501.28125 358.90625Q501.28125 358.125 501.9375 357.59375Q502.59375 357.04688 503.625 357.04688Q504.70312 357.04688 505.35938 357.60938Q506.03125 358.15625 506.03125 359.01562L504.95312 359.01562Q504.95312 358.57812 504.5625 358.26562Q504.1875 357.9375 503.625 357.9375Q503.03125 357.9375 502.6875 358.20312Q502.35938 358.45312 502.35938 358.85938Q502.35938 359.25 502.67188 359.45312Q502.98438 359.65625 503.79688 359.84375Q504.60938 360.01562 505.10938 360.26562Q505.60938 360.51562 505.84375 360.875Q506.09375 361.23438 506.09375 361.73438Q506.09375 362.59375 505.40625 363.10938Q504.73438 363.625 503.65625 363.625Q502.89062 363.625 502.29688 363.35938Q501.71875 363.07812 501.39062 362.59375Q501.0625 362.10938 501.0625 361.54688L502.14062 361.54688Q502.17188 362.09375 502.57812 362.42188Q502.98438 362.73438 503.65625 362.73438Q504.26562 362.73438 504.64062 362.48438Q505.01562 362.23438 505.01562 361.8125Z" fill-rule="nonzero"/><path stroke="#cccccc" stroke-width="1.0" stroke-linecap="butt" d="M350.0 222.0L350.0 389.0" fill-rule="nonzero"/><path fill="#000000" d="M343.70312 420.5L342.57812 420.5L342.57812 411.96875L343.70312 411.96875L343.70312 420.5ZM345.03125 417.26562Q345.03125 416.34375 345.39062 415.59375Q345.76562 414.84375 346.42188 414.45312Q347.07812 414.04688 347.90625 414.04688Q349.20312 414.04688 350.0 414.9375Q350.8125 415.82812 350.8125 417.32812L350.8125 417.40625Q350.8125 418.32812 350.45312 419.0625Q350.09375 419.79688 349.4375 420.21875Q348.78125 420.625 347.92188 420.625Q346.64062 420.625 345.82812 419.73438Q345.03125 418.82812 345.03125 417.34375L345.03125 417.26562ZM346.125 417.40625Q346.125 418.45312 346.60938 419.09375Q347.10938 419.73438 347.92188 419.73438Q348.75 419.73438 349.23438 419.09375Q349.71875 418.4375 349.71875 417.26562Q349.71875 416.23438 349.21875 415.59375Q348.73438 414.9375 347.90625 414.9375Q347.10938 414.9375 346.60938 415.57812Q346.125 416.20312 346.125 417.40625ZM358.39062 412.89062L355.64062 412.89062L355.64062 420.5L354.53125 420.5L354.53125 412.89062L351.78125 412.89062L351.78125 411.96875L358.39062 411.96875L358.39062 412.89062Z" fill-rule="nonzero"/><path stroke="#cccccc" stroke-width="1.0" stroke-linecap="butt" d="M350.0 222.0L232.0 340.0" fill-rule="nonzero"/><path fill="#000000" d="M204.23438 363.5Q204.14062 363.3125 204.07812 362.82812Q203.32812 363.625 202.28125 363.625Q201.34375 363.625 200.73438 363.09375Q200.14062 362.5625 200.14062 361.73438Q200.14062 360.75 200.89062 360.20312Q201.64062 359.65625 203.01562 359.65625L204.0625 359.65625L204.0625 359.15625Q204.0625 358.59375 203.71875 358.26562Q203.39062 357.92188 202.71875 357.92188Q202.14062 357.92188 201.75 358.21875Q201.35938 358.5 201.35938 358.92188L200.26562 358.92188Q200.26562 358.4375 200.59375 358.0Q200.9375 357.5625 201.51562 357.3125Q202.09375 357.04688 202.78125 357.04688Q203.89062 357.04688 204.5 357.59375Q205.125 358.14062 205.15625 359.09375L205.15625 362.01562Q205.15625 362.89062 205.375 363.40625L205.375 363.5L204.23438 363.5ZM202.4375 362.67188Q202.95312 362.67188 203.40625 362.40625Q203.85938 362.14062 204.0625 361.71875L204.0625 360.42188L203.21875 360.42188Q201.21875 360.42188 201.21875 361.59375Q201.21875 362.09375 201.5625 362.39062Q201.90625 362.67188 202.4375 362.67188ZM212.67188 360.40625Q212.67188 361.84375 212.01562 362.73438Q211.35938 363.625 210.21875 363.625Q209.0625 363.625 208.40625 362.89062L208.40625 365.9375L207.32812 365.9375L207.32812 357.15625L208.3125 357.15625L208.35938 357.85938Q209.03125 357.04688 210.20312 357.04688Q211.34375 357.04688 212.0 357.90625Q212.67188 358.76562 212.67188 360.29688L212.67188 360.40625ZM211.59375 360.28125Q211.59375 359.20312 211.125 358.59375Q210.67188 357.96875 209.875 357.96875Q208.89062 357.96875 208.40625 358.82812L208.40625 361.85938Q208.89062 362.73438 209.89062 362.73438Q210.67188 362.73438 211.125 362.125Q211.59375 361.5 211.59375 360.28125ZM219.67188 360.40625Q219.67188 361.84375 219.01562 362.73438Q218.35938 363.625 217.21875 363.625Q216.0625 363.625 215.40625 362.89062L215.40625 365.9375L214.32812 365.9375L214.32812 357.15625L215.3125 357.15625L215.35938 357.85938Q216.03125 357.04688 217.20312 357.04688Q218.34375 357.04688 219.0 357.90625Q219.67188 358.76562 219.67188 360.29688L219.67188 360.40625ZM218.59375 360.28125Q218.59375 359.20312 218.125 358.59375Q217.67188 357.96875 216.875 357.96875Q215.89062 357.96875 215.40625 358.82812L215.40625 361.85938Q215.89062 362.73438 216.89062 362.73438Q217.67188 362.73438 218.125 362.125Q218.59375 361.5 218.59375 360.28125ZM225.01562 361.8125Q225.01562 361.375 224.67188 361.14062Q224.34375 360.89062 223.51562 360.71875Q222.70312 360.54688 222.21875 360.29688Q221.73438 360.04688 221.5 359.71875Q221.28125 359.375 221.28125 358.90625Q221.28125 358.125 221.9375 357.59375Q222.59375 357.04688 223.625 357.04688Q224.70312 357.04688 225.35938 357.60938Q226.03125 358.15625 226.03125 359.01562L224.95312 359.01562Q224.95312 358.57812 224.5625 358.26562Q224.1875 357.9375 223.625 357.9375Q223.03125 357.9375 222.6875 358.20312Q222.35938 358.45312 222.35938 358.85938Q222.35938 359.25 222.67188 359.45312Q222.98438 359.65625 223.79688 359.84375Q224.60938 360.01562 225.10938 360.26562Q225.60938 360.51562 225.84375 360.875Q226.09375 361.23438 226.09375 361.73438Q226.09375 362.59375 225.40625 363.10938Q224.73438 363.625 223.65625 363.625Q222.89062 363.625 222.29688 363.35938Q221.71875 363.07812 221.39062 362.59375Q221.0625 362.10938 221.0625 361.54688L222.14062 361.54688Q222.17188 362.09375 222.57812 362.42188Q222.98438 362.73438 223.65625 362.73438Q224.26562 362.73438 224.64062 362.48438Q225.01562 362.23438 225.01562 361.8125Z" fill-rule="nonzero"/><path stroke="#cccccc" stroke-width="1.0" stroke-linecap="butt" d="M350.0 222.0L183.0 222.0" fill-rule="nonzero"/><path fill="#000000" d="M151.01562 224.8125Q151.01562 224.375 150.67188 224.14062Q150.34375 223.89062 149.51562 223.71875Q148.70312 223.54688 148.21875 223.29688Q147.73438 223.04688 147.5 222.71875Q147.28125 222.375 147.28125 221.90625Q147.28125 221.125 147.9375 220.59375Q148.59375 220.04688 149.625 220.04688Q150.70312 220.04688 151.35938 220.60938Q152.03125 221.15625 152.03125 222.01562L150.95312 222.01562Q150.95312 221.57812 150.5625 221.26562Q150.1875 220.9375 149.625 220.9375Q149.03125 220.9375 148.6875 221.20312Q148.35938 221.45312 148.35938 221.85938Q148.35938 222.25 148.67188 222.45312Q148.98438 222.65625 149.79688 222.84375Q150.60938 223.01562 151.10938 223.26562Q151.60938 223.51562 151.84375 223.875Q152.09375 224.23438 152.09375 224.73438Q152.09375 225.59375 151.40625 226.10938Q150.73438 226.625 149.65625 226.625Q148.89062 226.625 148.29688 226.35938Q147.71875 226.07812 147.39062 225.59375Q147.0625 225.10938 147.0625 224.54688L148.14062 224.54688Q148.17188 225.09375 148.57812 225.42188Q148.98438 225.73438 149.65625 225.73438Q150.26562 225.73438 150.64062 225.48438Q151.01562 225.23438 151.01562 224.8125ZM155.95312 226.625Q154.65625 226.625 153.84375 225.78125Q153.04688 224.92188 153.04688 223.5L153.04688 223.3125Q153.04688 222.35938 153.40625 221.625Q153.76562 220.875 154.40625 220.46875Q155.0625 220.04688 155.8125 220.04688Q157.04688 220.04688 157.73438 220.85938Q158.42188 221.67188 158.42188 223.1875L158.42188 223.64062L154.125 223.64062Q154.15625 224.57812 154.67188 225.15625Q155.20312 225.73438 156.01562 225.73438Q156.57812 225.73438 156.96875 225.5Q157.375 225.26562 157.6875 224.875L158.34375 225.39062Q157.54688 226.625 155.95312 226.625ZM155.8125 220.9375Q155.15625 220.9375 154.70312 221.42188Q154.26562 221.89062 154.17188 222.75L157.34375 222.75L157.34375 222.67188Q157.29688 221.84375 156.89062 221.39062Q156.5 220.9375 155.8125 220.9375ZM159.03125 223.26562Q159.03125 222.34375 159.39062 221.59375Q159.76562 220.84375 160.42188 220.45312Q161.07812 220.04688 161.90625 220.04688Q163.20312 220.04688 164.0 220.9375Q164.8125 221.82812 164.8125 223.32812L164.8125 223.40625Q164.8125 224.32812 164.45312 225.0625Q164.09375 225.79688 163.4375 226.21875Q162.78125 226.625 161.92188 226.625Q160.64062 226.625 159.82812 225.73438Q159.03125 224.82812 159.03125 223.34375L159.03125 223.26562ZM160.125 223.40625Q160.125 224.45312 160.60938 225.09375Q161.10938 225.73438 161.92188 225.73438Q162.75 225.73438 163.23438 225.09375Q163.71875 224.4375 163.71875 223.26562Q163.71875 222.23438 163.21875 221.59375Q162.73438 220.9375 161.90625 220.9375Q161.10938 220.9375 160.60938 221.57812Q160.125 222.20312 160.125 223.40625Z" fill-rule="nonzero"/><path stroke="#cccccc" stroke-width="1.0" stroke-linecap="butt" d="M350.0 222.0L232.0 104.0" fill-rule="nonzero"/><path fill="#000000" d="M190.0625 86.28125Q190.0625 84.796875 190.75 83.921875Q191.4375 83.046875 192.5625 83.046875Q193.71875 83.046875 194.375 83.859375L194.42188 83.15625L195.42188 83.15625L195.42188 89.34375Q195.42188 90.578125 194.6875 91.28125Q193.95312 92.0 192.73438 92.0Q192.04688 92.0 191.39062 91.703125Q190.73438 91.40625 190.39062 90.90625L190.95312 90.25Q191.64062 91.109375 192.65625 91.109375Q193.4375 91.109375 193.875 90.65625Q194.32812 90.21875 194.32812 89.40625L194.32812 88.859375Q193.67188 89.625 192.54688 89.625Q191.4375 89.625 190.75 88.734375Q190.0625 87.828125 190.0625 86.28125ZM191.15625 86.40625Q191.15625 87.46875 191.59375 88.09375Q192.03125 88.703125 192.82812 88.703125Q193.84375 88.703125 194.32812 87.765625L194.32812 84.875Q193.82812 83.96875 192.82812 83.96875Q192.04688 83.96875 191.59375 84.578125Q191.15625 85.1875 191.15625 86.40625ZM200.39062 84.125Q200.14062 84.09375 199.85938 84.09375Q198.78125 84.09375 198.40625 85.0L198.40625 89.5L197.32812 89.5L197.32812 83.15625L198.375 83.15625L198.39062 83.890625Q198.92188 83.046875 199.90625 83.046875Q200.21875 83.046875 200.39062 83.125L200.39062 84.125ZM205.23438 89.5Q205.14062 89.3125 205.07812 88.828125Q204.32812 89.625 203.28125 89.625Q202.34375 89.625 201.73438 89.09375Q201.14062 88.5625 201.14062 87.734375Q201.14062 86.75 201.89062 86.203125Q202.64062 85.65625 204.01562 85.65625L205.0625 85.65625L205.0625 85.15625Q205.0625 84.59375 204.71875 84.265625Q204.39062 83.921875 203.71875 83.921875Q203.14062 83.921875 202.75 84.21875Q202.35938 84.5 202.35938 84.921875L201.26562 84.921875Q201.26562 84.4375 201.59375 84.0Q201.9375 83.5625 202.51562 83.3125Q203.09375 83.046875 203.78125 83.046875Q204.89062 83.046875 205.5 83.59375Q206.125 84.140625 206.15625 85.09375L206.15625 88.015625Q206.15625 88.890625 206.375 89.40625L206.375 89.5L205.23438 89.5ZM203.4375 88.671875Q203.95312 88.671875 204.40625 88.40625Q204.85938 88.140625 205.0625 87.71875L205.0625 86.421875L204.21875 86.421875Q202.21875 86.421875 202.21875 87.59375Q202.21875 88.09375 202.5625 88.390625Q202.90625 88.671875 203.4375 88.671875ZM213.67188 86.40625Q213.67188 87.84375 213.01562 88.734375Q212.35938 89.625 211.21875 89.625Q210.0625 89.625 209.40625 88.890625L209.40625 91.9375L208.32812 91.9375L208.32812 83.15625L209.3125 83.15625L209.35938 83.859375Q210.03125 83.046875 211.20312 83.046875Q212.34375 83.046875 213.0 83.90625Q213.67188 84.765625 213.67188 86.296875L213.67188 86.40625ZM212.59375 86.28125Q212.59375 85.203125 212.125 84.59375Q211.67188 83.96875 210.875 83.96875Q209.89062 83.96875 209.40625 84.828125L209.40625 87.859375Q209.89062 88.734375 210.89062 88.734375Q211.67188 88.734375 212.125 88.125Q212.59375 87.5 212.59375 86.28125ZM216.40625 83.921875Q217.125 83.046875 218.28125 83.046875Q220.29688 83.046875 220.3125 85.3125L220.3125 89.5L219.21875 89.5L219.21875 85.296875Q219.21875 84.625 218.90625 84.296875Q218.60938 83.96875 217.95312 83.96875Q217.42188 83.96875 217.01562 84.25Q216.625 84.53125 216.40625 84.984375L216.40625 89.5L215.32812 89.5L215.32812 80.5L216.40625 80.5L216.40625 83.921875ZM223.5 89.5L222.42188 89.5L222.42188 83.15625L223.5 83.15625L223.5 89.5ZM222.32812 81.484375Q222.32812 81.21875 222.48438 81.03125Q222.65625 80.84375 222.96875 80.84375Q223.28125 80.84375 223.4375 81.03125Q223.60938 81.21875 223.60938 81.484375Q223.60938 81.734375 223.4375 81.921875Q223.28125 82.09375 222.96875 82.09375Q222.65625 82.09375 222.48438 81.921875Q222.32812 81.734375 222.32812 81.484375ZM227.85938 88.734375Q228.4375 88.734375 228.875 88.390625Q229.3125 88.03125 229.35938 87.5L230.39062 87.5Q230.35938 88.046875 230.0 88.546875Q229.65625 89.03125 229.07812 89.328125Q228.51562 89.625 227.85938 89.625Q226.5625 89.625 225.79688 88.765625Q225.04688 87.890625 225.04688 86.390625L225.04688 86.203125Q225.04688 85.28125 225.375 84.5625Q225.71875 83.84375 226.34375 83.453125Q226.98438 83.046875 227.85938 83.046875Q228.92188 83.046875 229.625 83.6875Q230.34375 84.3125 230.39062 85.34375L229.35938 85.34375Q229.3125 84.71875 228.89062 84.328125Q228.46875 83.9375 227.85938 83.9375Q227.03125 83.9375 226.57812 84.53125Q226.125 85.125 226.125 86.25L226.125 86.453125Q226.125 87.546875 226.57812 88.140625Q227.03125 88.734375 227.85938 88.734375ZM235.01562 87.8125Q235.01562 87.375 234.67188 87.140625Q234.34375 86.890625 233.51562 86.71875Q232.70312 86.546875 232.21875 86.296875Q231.73438 86.046875 231.5 85.71875Q231.28125 85.375 231.28125 84.90625Q231.28125 84.125 231.9375 83.59375Q232.59375 83.046875 233.625 83.046875Q234.70312 83.046875 235.35938 83.609375Q236.03125 84.15625 236.03125 85.015625L234.95312 85.015625Q234.95312 84.578125 234.5625 84.265625Q234.1875 83.9375 233.625 83.9375Q233.03125 83.9375 232.6875 84.203125Q232.35938 84.453125 232.35938 84.859375Q232.35938 85.25 232.67188 85.453125Q232.98438 85.65625 233.79688 85.84375Q234.60938 86.015625 235.10938 86.265625Q235.60938 86.515625 235.84375 86.875Q236.09375 87.234375 236.09375 87.734375Q236.09375 88.59375 235.40625 89.109375Q234.73438 89.625 233.65625 89.625Q232.89062 89.625 232.29688 89.359375Q231.71875 89.078125 231.39062 88.59375Q231.0625 88.109375 231.0625 87.546875L232.14062 87.546875Q232.17188 88.09375 232.57812 88.421875Q232.98438 88.734375 233.65625 88.734375Q234.26562 88.734375 234.64062 88.484375Q235.01562 88.234375 235.01562 87.8125Z" fill-rule="nonzero"/><path stroke="#cccccc" stroke-width="1.0" stroke-linecap="butt" d="M350.0 222.0L350.0 55.0" fill-rule="nonzero"/><path stroke="#4285f4" stroke-width="4.0" stroke-linecap="butt" d="M350.0 63.0C388.0 79.0 418.0 104.0 439.0 133.0C454.0 162.0 460.0 192.0 459.0 222.0C458.0 251.0 449.0 279.0 433.0 305.0C417.0 337.0 389.0 366.0 350.0 388.0C311.0 369.0 281.0 342.0 261.0 311.0C249.0 281.0 245.0 250.0 250.0 222.0C237.0 192.0 234.0 155.0 243.0 115.0C273.0 89.0 310.0 71.0 350.0 63.0Z" fill-rule="nonzero"/></svg>